# xmcd CD database file
#
# Track frame offsets:
#	150
#	24455
#	59647
#	85212
#	112910
#	141247
#	170490
#	193385
#	220402
#	243215
#	265277
#	281490
#	297995
#
# Disc length: 4187 seconds
#
# Revision: 2
# Processed by: cddbd v1.5.2PL0 Copyright (c) Steve Scherf et al.
# Submitted via: CDex 1.70beta2
#
DISCID=cb10590d
DTITLE=Lee Morgan - Expoobident
DYEAR=1995
DGENRE=Jazz
TTITLE0=Terrible "T"
TTITLE1=Mogie
TTITLE2=I'm A Fool To Want You
TTITLE3=Running Brook
TTITLE4=Off Spring
TTITLE5=Bess
TTITLE6=Expoobident
TTITLE7=Easy Living
TTITLE8=Triple Threat
TTITLE9=Fire
TTITLE10=Just In Time
TTITLE11=The Hearing
TTITLE12=Lost and Found
EXTD=Tracks 1 - 6:\nClifford Jordan: tenor, alto\nWynton Kelly: piano\nPaul Chambers: bass\nArt Blakey: drums\nRecorded on Feb. 2, 1960.\n\nTracks 7-13:\nClifford Jordan: tenor\nEddie Higgins: piano\nArt Davis: bass\nArt Blakey: drums\nRecorded: Oct. 13,
EXTD=1960.\n\nA 1996 Charly (London) release.\nSubmitted by rwright@waonline.com on 7-20-97. YEAR: 1995
EXTT0=
EXTT1=
EXTT2=
EXTT3=
EXTT4=
EXTT5=
EXTT6=
EXTT7=
EXTT8=
EXTT9=
EXTT10=
EXTT11=
EXTT12=
PLAYORDER=
